<svg width="220" height="220" xmlns="http://www.w3.org/2000/svg" xmlns:xlink="http://www.w3.org/1999/xlink" xml:space="preserve" overflow="hidden"><defs><clipPath id="clip0"><rect x="1124" y="131" width="220" height="220"/></clipPath></defs><g clip-path="url(#clip0)" transform="translate(-1124 -131)"><path d="M1234 131C1173.35 131 1124 180.35 1124 241 1124 301.65 1173.35 351 1234 351 1294.65 351 1344 301.65 1344 241 1344 180.35 1294.65 131 1234 131ZM1261.05 287.25C1265 291.15 1265 297.5 1261.05 301.4 1259.1 303.35 1256.55 304.35 1254 304.35 1251.45 304.35 1248.9 303.35 1246.95 301.4L1193.6 248.05C1191.7 246.2 1190.65 243.65 1190.65 241 1190.65 238.35 1191.7 235.8 1193.6 233.95L1246.95 180.6C1250.85 176.7 1257.15 176.7 1261.05 180.6 1265 184.5 1265 190.85 1261.05 194.75L1214.8 241 1261.05 287.25Z" fill="#2D5695" fill-rule="evenodd"/></g></svg>